<svg width="70" height="70" fill="none" xmlns="http://www.w3.org/2000/svg"><circle cx="35" cy="35" r="35" fill="#9683D7"/><path d="M49.682 21.997l-1.954 9.887a.112.112 0 00.038.108.114.114 0 00.113.02l2.089-.787.014.087a17.616 17.616 0 01-6.795 16.832 17.647 17.647 0 01-18.063 1.912 18.578 18.578 0 0026.094-8.965 18.544 18.544 0 001.255-10.149l2.405.195a.113.113 0 00.122-.11c0-.02-.004-.04-.014-.058l-5.096-9.006a.113.113 0 00-.208.034z" fill="#fff"/><path d="M45.95 42.624a16.334 16.334 0 01-13.315 6.227 16.345 16.345 0 01-12.93-6.989A16.316 16.316 0 0128.094 17a17.204 17.204 0 00-8.23 4.712 17.185 17.185 0 00-3.844 17.813 17.206 17.206 0 0030.747 3.305 17.18 17.18 0 002.633-9.106 16.202 16.202 0 01-3.45 8.9z" fill="#fff"/><path d="M42.36 25.39a22.197 22.197 0 01-3.413 3.477.111.111 0 00-.04.087v15.998a.606.606 0 01-.423.578l-.013.004a.607.607 0 01-.791-.577V30.042a.112.112 0 00-.12-.112.112.112 0 00-.057.02 22.065 22.065 0 01-5.411 2.715.112.112 0 00-.077.106v12.92a.604.604 0 01-.46.59.61.61 0 01-.265.006l-.024-.005a.604.604 0 01-.486-.593c.003-1.391.006-3.264.008-3.263v-9.215a.11.11 0 00-.044-.089.111.111 0 00-.097-.02l-.055.015a7.332 7.332 0 00-5.468 7.085v2.122a.605.605 0 01-.712.599.606.606 0 01-.311-.157 14.412 14.412 0 015.534-24.102 14.435 14.435 0 019.715.283A15.196 15.196 0 0024 20.307a15.178 15.178 0 00-6.257 14.072 15.169 15.169 0 009.28 12.294 15.197 15.197 0 0015.26-2.144 14.28 14.28 0 002.06-1.729l.066-.07a.603.603 0 00.163-.413V22.583v-.164a.114.114 0 00-.084-.11.113.113 0 00-.127.055 22.212 22.212 0 01-2.002 3.025z" fill="#fff"/></svg>