<svg width="70" height="70" fill="none" xmlns="http://www.w3.org/2000/svg"><circle cx="35" cy="35" r="35" fill="#9683D7"/><path d="M16.338 25.421c.186 0 .337-.15.337-.334a.336.336 0 00-.337-.334.336.336 0 00-.338.334c0 .185.151.334.338.334zM23.812 25.366c.187 0 .338-.15.338-.334a.336.336 0 00-.338-.335.336.336 0 00-.337.335c0 .184.15.334.337.334zM20.075 27.546c.186 0 .338-.15.338-.334a.336.336 0 00-.338-.334.336.336 0 00-.338.334c0 .184.152.334.338.334zM16.338 29.734c.186 0 .337-.15.337-.334a.336.336 0 00-.337-.334.336.336 0 00-.338.334c0 .185.151.334.338.334zM35.024 23.472c.386 0 .7-.31.7-.692a.696.696 0 00-.7-.693c-.386 0-.7.31-.7.693 0 .382.314.692.7.692zM31.287 25.66c.386 0 .7-.31.7-.692a.696.696 0 00-.7-.692c-.386 0-.7.31-.7.692 0 .382.314.692.7.692zM27.55 27.848c.386 0 .699-.31.699-.692a.696.696 0 00-.7-.692c-.386 0-.699.31-.699.692 0 .382.313.692.7.692zM23.812 30.037c.386 0 .7-.31.7-.693a.696.696 0 00-.7-.692c-.386 0-.699.31-.699.692 0 .383.313.693.7.693zM20.075 32.217c.386 0 .7-.31.7-.692a.696.696 0 00-.7-.693c-.386 0-.7.31-.7.693 0 .382.314.692.7.692zM16.338 34.047c.186 0 .337-.15.337-.334a.336.336 0 00-.337-.334.336.336 0 00-.338.334c0 .184.151.334.338.334zM35.024 28.477c.773 0 1.399-.62 1.399-1.384 0-.765-.626-1.385-1.399-1.385-.772 0-1.398.62-1.398 1.385 0 .764.626 1.384 1.398 1.384zM31.287 30.665c.772 0 1.398-.62 1.398-1.384 0-.765-.626-1.385-1.398-1.385-.772 0-1.398.62-1.398 1.385s.626 1.384 1.398 1.384zM27.55 32.854c.772 0 1.398-.62 1.398-1.385s-.626-1.385-1.398-1.385c-.773 0-1.399.62-1.399 1.385s.626 1.385 1.399 1.385zM23.812 35.034c.772 0 1.399-.62 1.399-1.385 0-.764-.627-1.384-1.399-1.384s-1.398.62-1.398 1.384c0 .765.626 1.385 1.398 1.385zM20.075 36.53c.386 0 .7-.31.7-.693a.696.696 0 00-.7-.692c-.386 0-.7.31-.7.692 0 .383.314.693.7.693zM16.338 38.36c.186 0 .337-.15.337-.334a.336.336 0 00-.337-.335.336.336 0 00-.338.335c0 .184.151.334.338.334zM35.024 32.79c.773 0 1.399-.62 1.399-1.385 0-.764-.626-1.384-1.399-1.384-.772 0-1.398.62-1.398 1.384 0 .765.626 1.385 1.398 1.385zM31.287 34.978c.772 0 1.398-.62 1.398-1.385 0-.764-.626-1.384-1.398-1.384-.772 0-1.398.62-1.398 1.384 0 .765.626 1.385 1.398 1.385zM27.55 37.158c.772 0 1.398-.62 1.398-1.384 0-.765-.626-1.385-1.398-1.385-.773 0-1.399.62-1.399 1.385 0 .764.626 1.384 1.399 1.384zM23.812 39.347c.772 0 1.399-.62 1.399-1.385s-.627-1.385-1.399-1.385-1.398.62-1.398 1.385.626 1.385 1.398 1.385zM20.075 40.843c.386 0 .7-.31.7-.693a.696.696 0 00-.7-.692c-.386 0-.7.31-.7.692 0 .383.314.693.7.693zM16.338 42.673c.186 0 .337-.15.337-.334a.336.336 0 00-.337-.335.336.336 0 00-.338.335c0 .184.151.334.338.334zM35.024 36.41c.386 0 .7-.31.7-.692a.696.696 0 00-.7-.692c-.386 0-.7.31-.7.692 0 .383.314.692.7.692zM31.287 38.59c.386 0 .7-.31.7-.692a.696.696 0 00-.7-.692c-.386 0-.7.31-.7.692 0 .383.314.693.7.693zM27.55 40.779c.386 0 .699-.31.699-.692a.696.696 0 00-.7-.693c-.386 0-.699.31-.699.693 0 .382.313.692.7.692zM23.812 42.967c.386 0 .7-.31.7-.692a.696.696 0 00-.7-.692c-.386 0-.699.31-.699.692 0 .382.313.692.7.692zM20.075 44.797c.186 0 .338-.15.338-.334a.336.336 0 00-.338-.334.336.336 0 00-.338.334c0 .185.152.334.338.334zM16.338 46.986c.186 0 .337-.15.337-.335a.336.336 0 00-.337-.334.336.336 0 00-.338.334c0 .185.151.335.338.335zM35.024 40.357c.187 0 .338-.15.338-.334a.336.336 0 00-.338-.334.336.336 0 00-.337.334c0 .184.15.334.337.334zM31.287 42.545c.186 0 .338-.15.338-.334a.336.336 0 00-.338-.334.336.336 0 00-.338.334c0 .185.151.334.338.334zM27.55 44.734c.186 0 .337-.15.337-.335a.336.336 0 00-.337-.334.336.336 0 00-.338.334c0 .185.151.335.338.335zM23.812 46.922c.187 0 .338-.15.338-.334a.336.336 0 00-.338-.334.336.336 0 00-.337.334c0 .184.15.334.337.334zM20.075 49.11c.186 0 .338-.15.338-.334a.336.336 0 00-.338-.334.336.336 0 00-.338.334c0 .184.152.334.338.334zM35.024 44.67c.187 0 .338-.15.338-.334a.336.336 0 00-.338-.334.336.336 0 00-.337.334c0 .185.15.334.337.334zM31.287 46.858c.186 0 .338-.15.338-.334a.336.336 0 00-.338-.334.336.336 0 00-.338.334c0 .185.151.334.338.334zM27.55 49.047c.186 0 .337-.15.337-.335a.336.336 0 00-.337-.334.336.336 0 00-.338.334c0 .185.151.335.338.335zM23.812 51.235c.187 0 .338-.15.338-.334a.336.336 0 00-.338-.335.336.336 0 00-.337.335c0 .184.15.334.337.334zM35.024 48.983c.187 0 .338-.15.338-.334a.336.336 0 00-.338-.334.336.336 0 00-.337.334c0 .184.15.334.337.334zM31.287 51.171c.186 0 .338-.15.338-.334a.336.336 0 00-.338-.334.336.336 0 00-.338.334c0 .185.151.334.338.334zM27.55 53.36c.186 0 .337-.15.337-.335a.336.336 0 00-.337-.334.336.336 0 00-.338.334c0 .185.151.334.338.334zM35.024 53.296c.187 0 .338-.15.338-.334a.336.336 0 00-.338-.335.336.336 0 00-.337.334c0 .185.15.335.337.335zM31.287 55.484c.186 0 .338-.15.338-.334a.336.336 0 00-.338-.334.336.336 0 00-.338.334c0 .184.151.334.338.334zM35.024 57.609c.187 0 .338-.15.338-.334a.336.336 0 00-.338-.335.336.336 0 00-.337.335c0 .184.15.334.337.334zM53.662 25.421c.187 0 .338-.15.338-.334a.336.336 0 00-.338-.334.336.336 0 00-.337.334c0 .185.151.334.337.334zM46.18 25.366c.186 0 .337-.15.337-.334a.336.336 0 00-.337-.335.336.336 0 00-.338.335c0 .184.151.334.338.334zM49.925 27.546c.187 0 .338-.15.338-.334a.336.336 0 00-.338-.334.336.336 0 00-.337.334c0 .184.15.334.337.334zM53.662 29.734c.187 0 .338-.15.338-.334a.336.336 0 00-.338-.334.336.336 0 00-.337.334c0 .185.151.334.337.334z" fill="#fff"/><path d="M34.968 23.472c.386 0 .7-.31.7-.692a.696.696 0 00-.7-.693c-.386 0-.7.31-.7.693 0 .382.314.692.7.692zM38.705 25.66c.387 0 .7-.31.7-.692a.696.696 0 00-.7-.692c-.386 0-.699.31-.699.692 0 .382.313.692.7.692zM42.443 27.848c.386 0 .699-.31.699-.692a.696.696 0 00-.7-.692c-.386 0-.699.31-.699.692 0 .382.313.692.7.692zM46.18 30.037c.386 0 .7-.31.7-.693a.696.696 0 00-.7-.692c-.386 0-.7.31-.7.692 0 .383.314.693.7.693zM49.925 32.217c.386 0 .7-.31.7-.692a.696.696 0 00-.7-.693c-.386 0-.699.31-.699.693 0 .382.313.692.7.692zM53.662 34.047c.187 0 .338-.15.338-.334a.336.336 0 00-.338-.334.336.336 0 00-.337.334c0 .184.151.334.337.334zM34.968 28.477c.772 0 1.398-.62 1.398-1.384 0-.765-.626-1.385-1.398-1.385-.772 0-1.399.62-1.399 1.385 0 .764.627 1.384 1.399 1.384zM38.705 30.665c.773 0 1.399-.62 1.399-1.384 0-.765-.626-1.385-1.399-1.385-.772 0-1.398.62-1.398 1.385s.626 1.384 1.398 1.384zM42.443 32.854c.772 0 1.398-.62 1.398-1.385s-.626-1.385-1.398-1.385c-.773 0-1.399.62-1.399 1.385s.626 1.385 1.399 1.385zM46.18 35.034c.772 0 1.398-.62 1.398-1.385 0-.764-.626-1.384-1.398-1.384-.773 0-1.399.62-1.399 1.384 0 .765.627 1.385 1.399 1.385zM49.925 36.53c.386 0 .7-.31.7-.693a.696.696 0 00-.7-.692c-.386 0-.699.31-.699.692 0 .383.313.693.7.693zM53.662 38.36c.187 0 .338-.15.338-.334a.336.336 0 00-.338-.335.336.336 0 00-.337.335c0 .184.151.334.337.334zM34.968 32.79c.772 0 1.398-.62 1.398-1.385 0-.764-.626-1.384-1.398-1.384-.772 0-1.399.62-1.399 1.384 0 .765.627 1.385 1.399 1.385zM38.705 34.978c.773 0 1.399-.62 1.399-1.385 0-.764-.626-1.384-1.399-1.384-.772 0-1.398.62-1.398 1.384 0 .765.626 1.385 1.398 1.385zM42.443 37.158c.772 0 1.398-.62 1.398-1.384 0-.765-.626-1.385-1.398-1.385-.773 0-1.399.62-1.399 1.385 0 .764.626 1.384 1.399 1.384zM46.18 39.347c.772 0 1.398-.62 1.398-1.385s-.626-1.385-1.398-1.385c-.773 0-1.399.62-1.399 1.385s.627 1.385 1.399 1.385zM49.925 40.843c.386 0 .7-.31.7-.693a.696.696 0 00-.7-.692c-.386 0-.699.31-.699.692 0 .383.313.693.7.693zM53.662 42.673c.187 0 .338-.15.338-.334a.336.336 0 00-.338-.335.336.336 0 00-.337.335c0 .184.151.334.337.334zM34.968 36.41c.386 0 .7-.31.7-.692a.696.696 0 00-.7-.692c-.386 0-.7.31-.7.692 0 .383.314.692.7.692zM38.705 38.59c.387 0 .7-.31.7-.692a.696.696 0 00-.7-.692c-.386 0-.699.31-.699.692 0 .383.313.693.7.693zM42.443 40.779c.386 0 .699-.31.699-.692a.696.696 0 00-.7-.693c-.386 0-.699.31-.699.693 0 .382.313.692.7.692zM46.18 42.967c.386 0 .7-.31.7-.692a.696.696 0 00-.7-.692c-.386 0-.7.31-.7.692 0 .382.314.692.7.692zM49.925 44.797c.187 0 .338-.15.338-.334a.336.336 0 00-.338-.334.336.336 0 00-.337.334c0 .185.15.334.337.334zM53.662 46.986c.187 0 .338-.15.338-.335a.336.336 0 00-.338-.334.336.336 0 00-.337.334c0 .185.151.335.337.335zM34.968 40.357c.186 0 .338-.15.338-.334a.336.336 0 00-.338-.334.336.336 0 00-.338.334c0 .184.151.334.338.334zM38.705 42.545c.187 0 .338-.15.338-.334a.336.336 0 00-.338-.334.336.336 0 00-.337.334c0 .185.15.334.337.334zM42.443 44.734c.186 0 .337-.15.337-.335a.336.336 0 00-.337-.334.336.336 0 00-.338.334c0 .185.151.335.338.335zM46.18 46.922c.186 0 .337-.15.337-.334a.336.336 0 00-.337-.334.336.336 0 00-.338.334c0 .184.151.334.338.334zM49.925 49.11c.187 0 .338-.15.338-.334a.336.336 0 00-.338-.334.336.336 0 00-.337.334c0 .184.15.334.337.334zM34.968 44.67c.186 0 .338-.15.338-.334a.336.336 0 00-.338-.334.336.336 0 00-.338.334c0 .185.151.334.338.334zM38.705 46.858c.187 0 .338-.15.338-.334a.336.336 0 00-.338-.334.336.336 0 00-.337.334c0 .185.15.334.337.334zM42.443 49.047c.186 0 .337-.15.337-.335a.336.336 0 00-.337-.334.336.336 0 00-.338.334c0 .185.151.335.338.335zM46.18 51.235c.186 0 .337-.15.337-.334a.336.336 0 00-.337-.335.336.336 0 00-.338.335c0 .184.151.334.338.334zM34.968 48.983c.186 0 .338-.15.338-.334a.336.336 0 00-.338-.334.336.336 0 00-.338.334c0 .184.151.334.338.334zM38.705 51.171c.187 0 .338-.15.338-.334a.336.336 0 00-.338-.334.336.336 0 00-.337.334c0 .185.15.334.337.334zM42.443 53.36c.186 0 .337-.15.337-.335a.336.336 0 00-.337-.334.336.336 0 00-.338.334c0 .185.151.334.338.334zM34.968 53.296c.186 0 .338-.15.338-.334a.336.336 0 00-.338-.335.336.336 0 00-.338.334c0 .185.151.335.338.335zM38.705 55.484c.187 0 .338-.15.338-.334a.336.336 0 00-.338-.334.336.336 0 00-.337.334c0 .184.15.334.337.334zM34.968 57.609c.186 0 .338-.15.338-.334a.336.336 0 00-.338-.335.336.336 0 00-.338.335c0 .184.151.334.338.334zM34.582 13.668c.187 0 .338-.15.338-.334a.336.336 0 00-.338-.334.336.336 0 00-.337.334c0 .185.15.334.337.334zM30.845 15.857c.186 0 .337-.15.337-.334a.336.336 0 00-.337-.335.336.336 0 00-.338.335c0 .184.151.334.338.334zM27.107 18.045c.187 0 .338-.15.338-.334a.336.336 0 00-.338-.334.336.336 0 00-.337.334c0 .184.151.334.337.334zM23.37 20.233c.186 0 .338-.15.338-.334a.336.336 0 00-.338-.334.336.336 0 00-.337.334c0 .185.15.334.337.334zM19.633 22.421c.186 0 .338-.15.338-.334a.336.336 0 00-.338-.334.336.336 0 00-.338.334c0 .185.151.334.338.334zM34.582 17.981c.187 0 .338-.15.338-.334a.336.336 0 00-.338-.334.336.336 0 00-.337.334c0 .185.15.334.337.334zM30.845 20.17c.186 0 .337-.15.337-.335a.336.336 0 00-.337-.334.336.336 0 00-.338.334c0 .185.151.335.338.335zM27.107 22.358c.187 0 .338-.15.338-.334a.336.336 0 00-.338-.335.336.336 0 00-.337.335c0 .184.151.334.337.334z" fill="#fff"/><path d="M34.526 13.668c.186 0 .337-.15.337-.334a.336.336 0 00-.337-.334.336.336 0 00-.338.334c0 .185.151.334.338.334zM38.263 15.857c.187 0 .338-.15.338-.334a.336.336 0 00-.338-.335.336.336 0 00-.337.335c0 .184.15.334.337.334zM42 18.045c.187 0 .338-.15.338-.334a.336.336 0 00-.337-.334.336.336 0 00-.338.334c0 .184.151.334.338.334zM45.738 20.233c.186 0 .337-.15.337-.334a.336.336 0 00-.337-.334.336.336 0 00-.338.334c0 .185.151.334.338.334zM49.483 22.421c.187 0 .338-.15.338-.334a.336.336 0 00-.338-.334.336.336 0 00-.337.334c0 .185.15.334.337.334zM34.526 17.981c.186 0 .337-.15.337-.334a.336.336 0 00-.337-.334.336.336 0 00-.338.334c0 .185.151.334.338.334zM38.263 20.17c.187 0 .338-.15.338-.335a.336.336 0 00-.338-.334.336.336 0 00-.337.334c0 .185.15.335.337.335zM42 22.358c.187 0 .338-.15.338-.334a.336.336 0 00-.337-.335.336.336 0 00-.338.335c0 .184.151.334.338.334z" fill="#fff"/></svg>