<svg width="70" height="70" fill="none" xmlns="http://www.w3.org/2000/svg"><circle cx="35" cy="35" r="35" fill="#9683D7"/><path d="M27.544 21.01a5.076 5.076 0 00-2.29 3.957v4.506a5.074 5.074 0 002.29 3.957l4.74 2.794c1.258.726 2.291.13 2.291-1.322v-15.27c0-1.453-1.034-2.049-2.29-1.322l-4.74 2.7zM27.464 34.042a4.995 4.995 0 00-4.444 0l-3.793 2.136a4.886 4.886 0 00-1.571 1.63A4.79 4.79 0 0017 39.959v5.233c0 1.389 1.005 1.958 2.227 1.264l12.854-7.297c1.222-.694 1.222-1.825 0-2.519l-4.617-2.598zM42.067 21.01a5.075 5.075 0 012.291 3.957v4.506a5.073 5.073 0 01-2.29 3.957l-4.75 2.794c-1.257.726-2.282.13-2.282-1.322v-15.27c0-1.453 1.025-2.049 2.282-1.322l4.75 2.7zM42.11 34.042a5.38 5.38 0 012.315-.521 5.38 5.38 0 012.315.52l3.95 2.137a4.971 4.971 0 011.632 1.63c.402.658.634 1.394.678 2.151v5.233c0 1.389-1.037 1.958-2.31 1.264l-13.388-7.297c-1.273-.694-1.273-1.825 0-2.519l4.808-2.598zM24.114 52.04a5.003 5.003 0 004.447 0l3.795-2.142a4.893 4.893 0 001.568-1.634 4.787 4.787 0 00.651-2.152v-5.226c0-1.386-.996-1.955-2.219-1.262l-12.861 7.288c-1.223.693-1.223 1.822 0 2.515l4.62 2.613zM35.036 46.116c.045.756.278 1.49.679 2.146.401.656.96 1.213 1.631 1.629l3.95 2.149c.718.342 1.511.52 2.316.52.804 0 1.596-.178 2.314-.52l4.808-2.62c1.273-.693 1.273-1.82 0-2.513l-13.388-7.283c-1.272-.693-2.31-.124-2.31 1.261v5.231z" fill="#fff"/></svg>