<svg width="70" height="70" fill="none" xmlns="http://www.w3.org/2000/svg"><circle cx="35" cy="35" r="35" fill="#9683D7"/><path d="M34.422 27.502c1.446-.013 2.882.25 4.234.773-.994-5.054-2.527-8.145-4.243-8.142h-.002c-1.715.003-3.239 3.097-4.22 8.152a11.444 11.444 0 014.23-.783zM32.339 51.391c.55 3.463 1.33 4.11 2.19 4.109.86-.001 1.634-.651 2.177-4.114l-4.367.005z" fill="#fff"/><path d="M39.83 41.542a121.318 121.318 0 00-1.064-12.385 11.866 11.866 0 00-8.683.01 124.092 124.092 0 00-1.034 12.489c-2.41 1.807-4.076 5.234-4.07 9.73l4.007-.006c.734 0 1.17-.189 1.17-.947l-.002-.014 8.735-.011c0 .802.419.96 1.155.958l4.023-.005c-.006-4.581-1.745-8.067-4.237-9.82zm-5.405-11.063c.33 0 .652.098.926.283.275.186.489.449.615.757a1.709 1.709 0 01-.359 1.84 1.646 1.646 0 01-1.816.368 1.67 1.67 0 01-.748-.62 1.704 1.704 0 01.205-2.132 1.656 1.656 0 011.177-.496zm.007 5.5c.33 0 .652.098.926.283.274.185.488.449.615.757a1.708 1.708 0 01-.36 1.84 1.647 1.647 0 01-1.815.368 1.669 1.669 0 01-.748-.62 1.703 1.703 0 01.205-2.132 1.656 1.656 0 011.177-.496zm.011 8.876c-.33 0-.651-.098-.926-.284a1.682 1.682 0 01-.614-.756 1.708 1.708 0 01.359-1.84 1.646 1.646 0 011.815-.368c.305.127.565.343.748.62a1.703 1.703 0 01-.204 2.132 1.665 1.665 0 01-1.178.496z" fill="#fff"/><path d="M34.427 31.183a.966.966 0 00-.678.294.991.991 0 00.002 1.382c.18.184.423.289.678.292a.965.965 0 00.687-.289.99.99 0 00-.002-1.392.965.965 0 00-.687-.287zM34.432 36.683a.965.965 0 00-.678.294.991.991 0 00.002 1.382c.18.184.423.289.678.292a.964.964 0 00.687-.29.99.99 0 00-.002-1.39.966.966 0 00-.687-.288zM34.44 42.183a.965.965 0 00-.678.294.992.992 0 00.002 1.381c.18.184.423.29.678.293a.965.965 0 00.687-.29.991.991 0 00-.002-1.391.967.967 0 00-.687-.287z" fill="#fff"/><path d="M39.686 28.159c-.822-4.176-2.403-9.155-5.276-9.155h-.028c-2.296.027-4.056 3.111-5.23 9.167l-.003.013-.329 1.894a63.386 63.386 0 00-.411 3.194 77.624 77.624 0 00-.295 3.797 10.634 10.634 0 01-3.91-6.506 10.714 10.714 0 01.775-6.279 10.543 10.543 0 014.173-4.71 10.344 10.344 0 0111.893.86 10.595 10.595 0 013.47 5.261c.601 2.072.562 4.28-.11 6.328a10.585 10.585 0 01-3.656 5.133 76.82 76.82 0 00-.37-4.443 62.934 62.934 0 00-.359-2.647l-.334-1.907z" fill="#fff"/><path d="M34.476 15a13.402 13.402 0 00-8.24 2.868 13.703 13.703 0 00-4.799 7.368 13.856 13.856 0 00.638 8.803 13.631 13.631 0 005.809 6.579c.027-.57.058-1.134.092-1.69a12.183 12.183 0 01-3.842-4.048 12.308 12.308 0 01-1.67-6.107 12.31 12.31 0 011.583-6.13 12.112 12.112 0 014.407-4.497 11.911 11.911 0 016.04-1.648c2.121 0 4.205.569 6.04 1.648a12.113 12.113 0 014.406 4.497 12.312 12.312 0 011.583 6.13 12.306 12.306 0 01-1.67 6.107 12.18 12.18 0 01-3.965 4.127c.034.554.065 1.114.094 1.679a13.621 13.621 0 005.903-6.557 13.85 13.85 0 00.691-8.846 13.698 13.698 0 00-4.81-7.416A13.395 13.395 0 0034.476 15z" fill="#fff"/></svg>