<svg width="16" height="16" fill="none" xmlns="http://www.w3.org/2000/svg"><path d="M15.988 3.446c0-.018.013-.036.012-.054l-4.883 4.705 4.877 4.554c.003-.032-.006-.065-.006-.098V3.446zM10.372 8.821l-1.993 1.918a.52.52 0 01-.717.006L5.674 8.892.765 13.624c.12.042.248.076.382.076h13.74c.2 0 .386-.06.549-.151L10.372 8.82z" fill="#9683D7"/><path d="M8.012 9.645l7.451-7.178a1.13 1.13 0 00-.575-.167H1.148c-.275 0-.526.106-.722.268l7.586 7.077zM0 3.621v8.932c0 .102.024.201.05.296L4.896 8.18 0 3.621z" fill="#9683D7"/></svg>