<svg width="16" height="16" fill="none" xmlns="http://www.w3.org/2000/svg"><g clip-path="url(#clip0_30_259)"><path d="M13.864 11.136c-.972-.827-1.959-1.328-2.919-.502l-.573.499c-.42.362-1.2 2.054-4.216-1.395-3.015-3.445-1.221-3.981-.8-4.34l.576-.5c.955-.827.595-1.869-.094-2.94l-.416-.65C4.73.238 3.976-.464 3.018.362l-.517.45C2.077 1.118.894 2.115.607 4.008c-.346 2.271.744 4.873 3.24 7.727 2.494 2.855 4.936 4.29 7.248 4.264 1.922-.02 3.083-1.046 3.446-1.418l.52-.45c.955-.826.361-1.667-.612-2.495l-.585-.5z" fill="#9683D7"/></g><defs><clipPath id="clip0_30_259"><path fill="#fff" d="M0 0h16v16H0z"/></clipPath></defs></svg>