<?xml version="1.0" encoding="utf-8"?><svg xmlns="http://www.w3.org/2000/svg" xmlns:xlink="http://www.w3.org/1999/xlink"><symbol fill="none" viewBox="0 0 18 18" id="arrow-down" xmlns="http://www.w3.org/2000/svg"><path d="m14.94 6.712-4.89 4.89a1.49 1.49 0 0 1-2.1 0l-4.89-4.89" stroke="#000" stroke-width="1.5" stroke-miterlimit="10" stroke-linecap="round" stroke-linejoin="round"/></symbol><symbol fill="none" viewBox="0 0 24 24" id="burger" xmlns="http://www.w3.org/2000/svg"><path fill-rule="evenodd" clip-rule="evenodd" d="M3 6a1 1 0 0 1 1-1h16a1 1 0 1 1 0 2H4a1 1 0 0 1-1-1Zm0 6a1 1 0 0 1 1-1h16a1 1 0 1 1 0 2H4a1 1 0 0 1-1-1Zm1 5a1 1 0 1 0 0 2h16a1 1 0 1 0 0-2H4Z" fill="#9683D7"/></symbol><symbol fill="none" viewBox="0 0 10 10" id="check_icon" xmlns="http://www.w3.org/2000/svg"><path d="M3.83 8.615a.51.51 0 0 1-.723 0L.224 5.732c-.299-.3-.299-.784 0-1.083l.361-.361c.3-.3.784-.3 1.083 0l1.8 1.8 4.864-4.864c.299-.299.784-.299 1.083 0l.36.361c.3.3.3.785 0 1.083L3.83 8.615Z" fill="#fff"/></symbol><symbol fill="none" viewBox="0 0 24 24" id="close" xmlns="http://www.w3.org/2000/svg"><path d="M4.994 3.906c-.256 0-.523.086-.719.281a1.029 1.029 0 0 0 0 1.438l6.282 6.281-6.282 6.281a1.029 1.029 0 0 0 0 1.438c.39.39 1.047.39 1.438 0l6.281-6.28 6.281 6.28c.39.39 1.047.39 1.438 0 .39-.39.39-1.047 0-1.438l-6.281-6.28 6.28-6.282c.391-.39.391-1.047 0-1.438a1.013 1.013 0 0 0-.718-.28c-.256 0-.523.085-.719.28l-6.28 6.281-6.282-6.28a1.013 1.013 0 0 0-.719-.282Z" fill="#fff"/></symbol><symbol fill="none" viewBox="0 0 200 57" id="logo" xmlns="http://www.w3.org/2000/svg"><path d="M60.501 39.736 49.694 2.824A3.918 3.918 0 0 0 46.02 0a3.91 3.91 0 0 0-3.815 2.631l-9.475 27.024-6.66-16.632a3.921 3.921 0 0 0-3.653-2.47 3.921 3.921 0 0 0-3.653 2.47L11.459 31.26l-4.007-7.993a3.943 3.943 0 0 0-5.277-1.754C.237 22.479-.56 24.848.419 26.784L8.33 42.599a3.937 3.937 0 0 0 3.684 2.167 3.93 3.93 0 0 0 3.491-2.47l6.913-17.246 6.902 17.247a3.955 3.955 0 0 0 3.734 2.47 3.938 3.938 0 0 0 3.622-2.632l8.9-25.36 7.367 25.169a3.947 3.947 0 0 0 3.774 2.822c.373 0 .747-.05 1.11-.161a3.92 3.92 0 0 0 2.674-4.869Z" fill="url(#ea)"/><path d="M70.873 23.857h4.41V36.35l9.15-12.493h4.165v19.177h-4.384V30.57l-9.15 12.465h-4.191V23.857Zm36.554 19.177v-8.821l-4.411 7.397h-1.808l-4.301-7.424v8.848h-3.863V28.296h4.465l4.712 8.52 5.014-8.52h4l.054 14.738h-3.862Zm22.613-14.738v14.738h-4.274V31.802h-6.136v11.232h-4.247V28.296h14.657Zm18.864 0-6.657 15.642c-.676 1.699-1.516 2.895-2.521 3.59-.986.693-2.182 1.04-3.589 1.04a7.471 7.471 0 0 1-2.273-.356c-.749-.237-1.361-.566-1.836-.986l1.562-3.041a3.699 3.699 0 0 0 2.41.931c.585 0 1.06-.146 1.425-.438.365-.274.694-.74.986-1.397l.055-.137-6.383-14.848h4.411l4.136 9.999 4.164-10h4.11Zm15.154 0v14.738h-4.273V31.802h-4.658l-.137 2.603c-.073 1.936-.255 3.543-.548 4.821-.292 1.279-.767 2.283-1.424 3.014-.658.73-1.571 1.096-2.74 1.096-.621 0-1.36-.11-2.219-.329l.219-3.507c.293.037.503.055.631.055.639 0 1.114-.228 1.424-.685.329-.475.548-1.068.658-1.78.109-.731.191-1.69.246-2.877l.219-5.918h12.602Zm12.082 4.712c1.918.018 3.388.456 4.411 1.315 1.023.84 1.534 2.036 1.534 3.588 0 1.626-.575 2.895-1.726 3.808-1.132.895-2.73 1.343-4.794 1.343l-7.397-.028V28.296h4.247v4.712h3.725Zm-.958 7.013c.821.018 1.452-.155 1.89-.52.438-.366.657-.914.657-1.644 0-.713-.219-1.233-.657-1.562-.42-.329-1.05-.502-1.89-.52l-2.767-.028v4.274h2.767Zm16.587 3.233c-1.571 0-2.986-.32-4.247-.96-1.241-.657-2.219-1.56-2.931-2.711-.694-1.151-1.041-2.457-1.041-3.918 0-1.461.347-2.767 1.041-3.918.712-1.15 1.69-2.045 2.931-2.684 1.261-.658 2.676-.987 4.247-.987 1.552 0 2.904.33 4.054.987 1.169.639 2.019 1.561 2.548 2.767l-3.315 1.78c-.767-1.351-1.872-2.027-3.315-2.027-1.114 0-2.036.365-2.767 1.096-.73.73-1.095 1.726-1.095 2.986 0 1.26.365 2.255 1.095 2.986.731.73 1.653 1.096 2.767 1.096 1.462 0 2.567-.676 3.315-2.027l3.315 1.808c-.529 1.169-1.379 2.082-2.548 2.74-1.15.657-2.502.986-4.054.986Z" fill="#3A3938"/><defs><linearGradient id="ea" x1="5.814" y1="22.382" x2="51.135" y2="22.382" gradientUnits="userSpaceOnUse"><stop stop-color="#ED6B6A"/><stop offset="1" stop-color="#6E368C"/></linearGradient></defs></symbol><symbol fill="none" viewBox="0 0 16 16" id="mail" xmlns="http://www.w3.org/2000/svg"><path d="M15.988 3.446c0-.018.013-.036.012-.054l-4.883 4.705 4.877 4.554c.003-.032-.006-.065-.006-.098V3.446ZM10.372 8.821l-1.993 1.918a.52.52 0 0 1-.717.006L5.674 8.892.765 13.624c.12.042.248.076.382.076h13.74c.2 0 .386-.06.549-.151L10.372 8.82Z" fill="#9683D7"/><path d="m8.012 9.645 7.451-7.178a1.13 1.13 0 0 0-.575-.167H1.148c-.275 0-.526.106-.722.268l7.586 7.077ZM0 3.621v8.932c0 .102.024.201.05.296L4.896 8.18 0 3.621Z" fill="#9683D7"/></symbol><symbol fill="none" viewBox="0 0 16 16" id="phone" xmlns="http://www.w3.org/2000/svg"><g clip-path="url(#ga)"><path d="M13.864 11.136c-.972-.827-1.959-1.328-2.919-.502l-.573.499c-.42.362-1.2 2.054-4.216-1.395-3.015-3.445-1.221-3.981-.8-4.34l.576-.5c.955-.827.595-1.869-.094-2.94l-.416-.65C4.73.238 3.976-.464 3.018.362l-.517.45C2.077 1.118.894 2.115.607 4.008c-.346 2.271.744 4.873 3.24 7.727 2.494 2.855 4.936 4.29 7.248 4.264 1.922-.02 3.083-1.046 3.446-1.418l.52-.45c.955-.826.361-1.667-.612-2.495l-.585-.5Z" fill="#9683D7"/></g><defs><clipPath id="ga"><path fill="#fff" d="M0 0h16v16H0z"/></clipPath></defs></symbol><symbol fill="none" viewBox="0 0 16 18" id="play" xmlns="http://www.w3.org/2000/svg"><path d="M15 7.268c1.333.77 1.333 2.694 0 3.464L3 17.66c-1.333.77-3-.192-3-1.732V2.072C0 .532 1.667-.43 3 .34l12 6.928Z" fill="currentColor"/></symbol><symbol fill="none" viewBox="0 0 53 53" id="play-btn" xmlns="http://www.w3.org/2000/svg"><circle cx="26.5" cy="26.5" r="26.5" fill="#9683D7"/><path d="M35 24.268c1.333.77 1.333 2.694 0 3.464L23 34.66c-1.333.77-3-.192-3-1.732V19.072c0-1.54 1.667-2.502 3-1.732l12 6.928Z" fill="#F1EBF4"/></symbol></svg>